# xmcd
#
# Track frame offsets:
#	150
#	16692
#	34427
#
# Disc length: 746 seconds
#
# Revision: 0
# Processed by: cddbd v1.5.2PL0 Copyright (c) Steve Scherf et al.
# Submitted via: audiograbber 1.83.01
#
DISCID=1a02e803
DTITLE=Schröders - Single - Wienerwald
DYEAR=1995
DGENRE=Country
TTITLE0=Wienerwald
TTITLE1=Nie wieder Rock´n´Roll
TTITLE2=LaLaLa
EXTD=
EXTT0=
EXTT1=
EXTT2=
PLAYORDER=
